{
  "accessors": [
    {
      "bufferView": 2,
      "componentType": 5126,
      "count": 18195,
      "max": [
        9.255544662475586,
        -10.441983222961426,
        4.845754146575928
      ],
      "min": [
        -2.822568893432617,
        -15.240760803222656,
        -4.624265670776367
      ],
      "type": "VEC3"
    },
    {
      "bufferView": 2,
      "byteOffset": 218340,
      "componentType": 5126,
      "count": 18195,
      "max": [
        0.9998882412910461,
        1.0,
        0.9999985694885254
      ],
      "min": [
        -0.9999997615814209,
        -0.9999805688858032,
        -1.0
      ],
      "type": "VEC3"
    },
    {
      "bufferView": 1,
      "componentType": 5126,
      "count": 18195,
      "max": [
        1.0093588829040527,
        1.010144829750061
      ],
      "min": [
        0.0,
        -0.10572127252817154
      ],
      "type": "VEC2"
    },
    {
      "bufferView": 0,
      "componentType": 5125,
      "count": 97563,
      "type": "SCALAR"
    },
    {
      "bufferView": 2,
      "byteOffset": 436680,
      "componentType": 5126,
      "count": 18195,
      "max": [
        9.255544662475586,
        -16.21161460876465,
        4.845754146575928
      ],
      "min": [
        -2.822568893432617,
        -21.010393142700195,
        -4.624265670776367
      ],
      "type": "VEC3"
    },
    {
      "bufferView": 2,
      "byteOffset": 655020,
      "componentType": 5126,
      "count": 18195,
      "max": [
        1.0,
        0.9999753832817078,
        1.0
      ],
      "min": [
        -0.9998882412910461,
        -0.9999802112579346,
        -0.9999985694885254
      ],
      "type": "VEC3"
    },
    {
      "bufferView": 1,
      "byteOffset": 145560,
      "componentType": 5126,
      "count": 18195,
      "max": [
        1.0093588829040527,
        1.010144829750061
      ],
      "min": [
        0.0,
        -0.10572127252817154
      ],
      "type": "VEC2"
    },
    {
      "bufferView": 0,
      "byteOffset": 390252,
      "componentType": 5125,
      "count": 97563,
      "type": "SCALAR"
    }
  ],
  "asset": {
    "extras": {
      "author": "Andrey (https://sketchfab.com/Earl_1)",
      "license": "CC-BY-4.0 (http://creativecommons.org/licenses/by/4.0/)",
      "source": "https://sketchfab.com/3d-models/classic-high-heel-pumps-e968fd35a2f1474996bc1536ae85970f",
      "title": "Classic high heel pumps"
    },
    "generator": "Sketchfab-12.66.0",
    "version": "2.0"
  },
  "bufferViews": [
    {
      "buffer": 0,
      "byteLength": 780504,
      "name": "floatBufferViews",
      "target": 34963
    },
    {
      "buffer": 0,
      "byteLength": 291120,
      "byteOffset": 780504,
      "byteStride": 8,
      "name": "floatBufferViews",
      "target": 34962
    },
    {
      "buffer": 0,
      "byteLength": 873360,
      "byteOffset": 1071624,
      "byteStride": 12,
      "name": "floatBufferViews",
      "target": 34962
    }
  ],
  "buffers": [
    {
      "byteLength": 1944984,
      "uri": "scene.bin"
    }
  ],
  "materials": [
    {
      "doubleSided": true,
      "name": "09_-_Default",
      "pbrMetallicRoughness": {
        "baseColorFactor": [
          0.168627,
          0.168627,
          0.168627,
          1.0
        ],
        "metallicFactor": 0.0,
        "roughnessFactor": 0.6
      }
    }
  ],
  "meshes": [
    {
      "name": "Object_0",
      "primitives": [
        {
          "attributes": {
            "NORMAL": 1,
            "POSITION": 0,
            "TEXCOORD_0": 2
          },
          "indices": 3,
          "material": 0,
          "mode": 4
        }
      ]
    },
    {
      "name": "Object_1",
      "primitives": [
        {
          "attributes": {
            "NORMAL": 5,
            "POSITION": 4,
            "TEXCOORD_0": 6
          },
          "indices": 7,
          "material": 0,
          "mode": 4
        }
      ]
    }
  ],
  "nodes": [
    {
      "children": [
        1
      ],
      "matrix": [
        1.0,
        0.0,
        0.0,
        0.0,
        0.0,
        2.220446049250313e-16,
        -1.0,
        0.0,
        0.0,
        1.0,
        2.220446049250313e-16,
        0.0,
        0.0,
        0.0,
        0.0,
        1.0
      ],
      "name": "Sketchfab_model"
    },
    {
      "children": [
        2,
        5
      ],
      "name": "7e9a5e592fe0411bbd75b434aad29961.3ds"
    },
    {
      "children": [
        3
      ],
      "matrix": [
        1.0,
        0.0,
        0.0,
        0.0,
        0.0,
        -1.0,
        0.0,
        -0.0,
        0.0,
        0.0,
        1.0,
        0.0,
        2.8901729583740234,
        -12.846187591552734,
        0.0,
        1.0
      ],
      "name": "Right"
    },
    {
      "children": [
        4
      ],
      "matrix": [
        1.0,
        -0.0,
        -0.0,
        0.0,
        0.0,
        -1.0,
        0.0,
        0.0,
        0.0,
        0.0,
        1.0,
        0.0,
        -2.8901729583740234,
        -12.846187591552734,
        -0.0,
        1.0
      ],
      "name": "3DSMeshMatrix"
    },
    {
      "mesh": 0,
      "name": "Object_4"
    },
    {
      "children": [
        6
      ],
      "matrix": [
        1.0,
        0.0,
        0.0,
        0.0,
        0.0,
        1.0,
        0.0,
        0.0,
        0.0,
        0.0,
        1.0,
        0.0,
        2.8901729583740234,
        -18.60618782043457,
        0.0,
        1.0
      ],
      "name": "Left"
    },
    {
      "children": [
        7
      ],
      "matrix": [
        1.0,
        0.0,
        0.0,
        0.0,
        0.0,
        1.0,
        0.0,
        0.0,
        0.0,
        0.0,
        1.0,
        0.0,
        -2.8901729583740234,
        18.60618782043457,
        -0.0,
        1.0
      ],
      "name": "3DSMeshMatrix"
    },
    {
      "mesh": 1,
      "name": "Object_7"
    }
  ],
  "scene": 0,
  "scenes": [
    {
      "name": "Sketchfab_Scene",
      "nodes": [
        0
      ]
    }
  ]
}
