{
  "accessors": [
    {
      "bufferView": 2,
      "componentType": 5126,
      "count": 65532,
      "max": [
        8.351349830627441,
        0.08740810304880142,
        1.5508699417114258
      ],
      "min": [
        -5.412139892578125,
        -18.546199798583984,
        -12.642399787902832
      ],
      "type": "VEC3"
    },
    {
      "bufferView": 2,
      "byteOffset": 786384,
      "componentType": 5126,
      "count": 65532,
      "max": [
        0.9999972581863403,
        0.9999972581863403,
        0.9999326467514038
      ],
      "min": [
        -0.999999463558197,
        -1.0,
        -0.9999619722366333
      ],
      "type": "VEC3"
    },
    {
      "bufferView": 3,
      "componentType": 5126,
      "count": 65532,
      "max": [
        0.999971866607666,
        0.9395130276679993,
        0.9999990463256836,
        1.0
      ],
      "min": [
        -0.999989926815033,
        -0.9437351822853088,
        -0.9999997019767761,
        -1.0
      ],
      "type": "VEC4"
    },
    {
      "bufferView": 1,
      "componentType": 5126,
      "count": 65532,
      "max": [
        0.9997329711914063,
        0.9851070046424866
      ],
      "min": [
        0.00024399999529123306,
        0.0004189999890513718
      ],
      "type": "VEC2"
    },
    {
      "bufferView": 0,
      "componentType": 5125,
      "count": 347925,
      "type": "SCALAR"
    },
    {
      "bufferView": 2,
      "byteOffset": 1572768,
      "componentType": 5126,
      "count": 65532,
      "max": [
        8.47268009185791,
        0.08740810304880142,
        1.5463600158691406
      ],
      "min": [
        -5.0876898765563965,
        -18.900800704956055,
        -12.089300155639648
      ],
      "type": "VEC3"
    },
    {
      "bufferView": 2,
      "byteOffset": 2359152,
      "componentType": 5126,
      "count": 65532,
      "max": [
        0.9999973773956299,
        0.9999982118606567,
        0.9999691247940063
      ],
      "min": [
        -0.9999907612800598,
        -1.0,
        -0.9998007416725159
      ],
      "type": "VEC3"
    },
    {
      "bufferView": 3,
      "byteOffset": 1048512,
      "componentType": 5126,
      "count": 65532,
      "max": [
        0.9999687671661377,
        0.961000919342041,
        0.9999990463256836,
        1.0
      ],
      "min": [
        -0.9999617338180542,
        -0.9455165863037109,
        -0.999998927116394,
        -1.0
      ],
      "type": "VEC4"
    },
    {
      "bufferView": 1,
      "byteOffset": 524256,
      "componentType": 5126,
      "count": 65532,
      "max": [
        0.999517023563385,
        0.970458984375
      ],
      "min": [
        0.00024399999529123306,
        0.0002469999890308827
      ],
      "type": "VEC2"
    },
    {
      "bufferView": 0,
      "byteOffset": 1391700,
      "componentType": 5125,
      "count": 348033,
      "type": "SCALAR"
    },
    {
      "bufferView": 2,
      "byteOffset": 3145536,
      "componentType": 5126,
      "count": 21868,
      "max": [
        -0.02617350034415722,
        0.08291050046682358,
        1.5508699417114258
      ],
      "min": [
        -5.408609867095947,
        -18.53849983215332,
        -11.178099632263184
      ],
      "type": "VEC3"
    },
    {
      "bufferView": 2,
      "byteOffset": 3407952,
      "componentType": 5126,
      "count": 21868,
      "max": [
        0.9999706149101257,
        0.9999684691429138,
        0.9998594522476196
      ],
      "min": [
        -0.999971866607666,
        -1.0,
        -0.9996604919433594
      ],
      "type": "VEC3"
    },
    {
      "bufferView": 3,
      "byteOffset": 2097024,
      "componentType": 5126,
      "count": 21868,
      "max": [
        0.999971866607666,
        0.9272380471229553,
        0.9999983310699463,
        -1.0
      ],
      "min": [
        -0.9999616742134094,
        -0.9362255334854126,
        -0.9999987483024597,
        -1.0
      ],
      "type": "VEC4"
    },
    {
      "bufferView": 1,
      "byteOffset": 1048512,
      "componentType": 5126,
      "count": 21868,
      "max": [
        0.9879099726676941,
        0.9764860272407532
      ],
      "min": [
        0.00024399999529123306,
        0.00028300000121816993
      ],
      "type": "VEC2"
    },
    {
      "bufferView": 0,
      "byteOffset": 2783832,
      "componentType": 5125,
      "count": 99726,
      "type": "SCALAR"
    }
  ],
  "asset": {
    "extras": {
      "author": "Virtual Museums of Małopolska (https://sketchfab.com/WirtualneMuzeaMalopolski)",
      "license": "CC-BY-4.0 (http://creativecommons.org/licenses/by/4.0/)",
      "source": "https://sketchfab.com/3d-models/shoes-67640862c6694852be3134d9d2a8c73e",
      "title": "Shoes"
    },
    "generator": "Sketchfab-12.68.0",
    "version": "2.0"
  },
  "bufferViews": [
    {
      "buffer": 0,
      "byteLength": 3182736,
      "name": "floatBufferViews",
      "target": 34963
    },
    {
      "buffer": 0,
      "byteLength": 1223456,
      "byteOffset": 3182736,
      "byteStride": 8,
      "name": "floatBufferViews",
      "target": 34962
    },
    {
      "buffer": 0,
      "byteLength": 3670368,
      "byteOffset": 4406192,
      "byteStride": 12,
      "name": "floatBufferViews",
      "target": 34962
    },
    {
      "buffer": 0,
      "byteLength": 2446912,
      "byteOffset": 8076560,
      "byteStride": 16,
      "name": "floatBufferViews",
      "target": 34962
    }
  ],
  "buffers": [
    {
      "byteLength": 10523472,
      "uri": "scene.bin"
    }
  ],
  "images": [
    {
      "uri": "textures/e_1675_RC_02_Material_u1_v1_baseColor.png"
    },
    {
      "uri": "textures/e_1675_RC_02_Material_u1_v1_metallicRoughness.png"
    },
    {
      "uri": "textures/e_1675_RC_02_Material_u1_v1_normal.png"
    }
  ],
  "materials": [
    {
      "doubleSided": true,
      "name": "e_1675_RC_02_Material_u1_v1",
      "normalTexture": {
        "index": 2
      },
      "occlusionTexture": {
        "index": 1
      },
      "pbrMetallicRoughness": {
        "baseColorTexture": {
          "index": 0
        },
        "metallicFactor": 0.0,
        "metallicRoughnessTexture": {
          "index": 1
        },
        "roughnessFactor": 0.9041539634146342
      }
    }
  ],
  "meshes": [
    {
      "name": "Object_0",
      "primitives": [
        {
          "attributes": {
            "NORMAL": 1,
            "POSITION": 0,
            "TANGENT": 2,
            "TEXCOORD_0": 3
          },
          "indices": 4,
          "material": 0,
          "mode": 4
        }
      ]
    },
    {
      "name": "Object_1",
      "primitives": [
        {
          "attributes": {
            "NORMAL": 6,
            "POSITION": 5,
            "TANGENT": 7,
            "TEXCOORD_0": 8
          },
          "indices": 9,
          "material": 0,
          "mode": 4
        }
      ]
    },
    {
      "name": "Object_2",
      "primitives": [
        {
          "attributes": {
            "NORMAL": 11,
            "POSITION": 10,
            "TANGENT": 12,
            "TEXCOORD_0": 13
          },
          "indices": 14,
          "material": 0,
          "mode": 4
        }
      ]
    }
  ],
  "nodes": [
    {
      "children": [
        1
      ],
      "matrix": [
        0.021512262523174286,
        0.0,
        0.0,
        0.0,
        0.0,
        -0.021512262523174286,
        -9.553363666003583e-18,
        0.0,
        0.0,
        9.553363666003583e-18,
        -0.021512262523174286,
        0.0,
        0.0,
        -14.952465057373047,
        3.8609209060668914,
        1.0
      ],
      "name": "Sketchfab_model"
    },
    {
      "children": [
        2,
        3,
        4
      ],
      "name": "e_1675_RC_FIN.obj.cleaner.materialmerger.gles"
    },
    {
      "mesh": 0,
      "name": "Object_2"
    },
    {
      "mesh": 1,
      "name": "Object_3"
    },
    {
      "mesh": 2,
      "name": "Object_4"
    }
  ],
  "samplers": [
    {
      "magFilter": 9729,
      "minFilter": 9987,
      "wrapS": 10497,
      "wrapT": 10497
    }
  ],
  "scene": 0,
  "scenes": [
    {
      "name": "Sketchfab_Scene",
      "nodes": [
        0
      ]
    }
  ],
  "textures": [
    {
      "sampler": 0,
      "source": 0
    },
    {
      "sampler": 0,
      "source": 1
    },
    {
      "sampler": 0,
      "source": 2
    }
  ]
}
